<svg width="226" height="86" viewBox="0 0 226 86" fill="none" xmlns="http://www.w3.org/2000/svg">
<path fill-rule="evenodd" clip-rule="evenodd" d="M0 22.0296L36.7861 0L74 22.0296V64.3941L36.7861 86L0 64.3941V22.0296ZM7.69942 26.6897V60.1576L19.2486 67.3596V47.8719L36.7861 58.0394L54.7514 47.8719V67.3596L66.3006 60.1576V26.6897L36.7861 42.7882L7.69942 26.6897Z" fill="#FFF100"/>
<path d="M99.5817 57H84.6516V29.3113H99.5817V33.4607H89.848V40.5186H98.9613V44.6681H89.848V52.8118H99.5817V57ZM109.217 57L101.655 35.9814H107.045L110.807 48.1195C110.988 48.6107 111.13 49.1536 111.234 49.7482C111.363 50.317 111.479 50.8857 111.583 51.4545C111.686 51.9974 111.738 52.4757 111.738 52.8894H111.893C111.944 52.4499 112.009 51.9586 112.087 51.4157C112.19 50.847 112.319 50.2782 112.474 49.7094C112.63 49.1407 112.772 48.6107 112.901 48.1195L116.701 35.9814H122.092L114.53 57H109.217ZM133.157 35.5936C134.967 35.5936 136.518 35.9814 137.811 36.757C139.129 37.5068 140.151 38.5926 140.874 40.0145C141.598 41.4106 141.96 43.1169 141.96 45.1334V47.6153H129.085C129.137 49.5285 129.603 51.015 130.482 52.075C131.386 53.1091 132.653 53.6262 134.282 53.6262C135.575 53.6262 136.725 53.4969 137.733 53.2384C138.742 52.954 139.789 52.5533 140.874 52.0362V55.9529C139.892 56.4442 138.871 56.8061 137.811 57.0388C136.751 57.2715 135.445 57.3878 133.894 57.3878C131.929 57.3878 130.184 57 128.659 56.2244C127.159 55.423 125.983 54.2208 125.13 52.6179C124.277 51.015 123.85 49.0243 123.85 46.6458C123.85 44.2415 124.238 42.2249 125.014 40.5962C125.789 38.9416 126.875 37.7007 128.271 36.8734C129.693 36.0202 131.322 35.5936 133.157 35.5936ZM133.235 39.2001C132.072 39.2001 131.128 39.6267 130.404 40.4799C129.706 41.3072 129.292 42.5481 129.163 44.2027H137.074C137.074 43.2203 136.932 42.3542 136.648 41.6045C136.363 40.8547 135.937 40.273 135.368 39.8594C134.825 39.4199 134.114 39.2001 133.235 39.2001ZM157.112 35.5936C157.474 35.5936 157.849 35.6066 158.237 35.6324C158.624 35.6583 158.948 35.71 159.206 35.7875L158.741 40.3247C158.482 40.273 158.172 40.2343 157.81 40.2084C157.474 40.1567 157.112 40.1308 156.724 40.1308C156.078 40.1308 155.444 40.2601 154.824 40.5186C154.203 40.7513 153.648 41.1133 153.156 41.6045C152.665 42.0698 152.265 42.6774 151.954 43.4271C151.67 44.1769 151.528 45.0688 151.528 46.1029V57H146.37V35.9814H150.326L151.024 39.6267H151.295C151.683 38.877 152.161 38.2048 152.73 37.6102C153.324 36.9897 153.984 36.4985 154.708 36.1365C155.457 35.7746 156.259 35.5936 157.112 35.5936ZM163.044 57V29.3113H168.241V52.8118H178.905V57H163.044ZM200.949 46.4519C200.949 48.2099 200.729 49.7611 200.289 51.1055C199.85 52.4499 199.204 53.6003 198.35 54.5569C197.523 55.4876 196.515 56.1986 195.326 56.6898C194.136 57.1551 192.805 57.3878 191.331 57.3878C189.961 57.3878 188.681 57.1551 187.492 56.6898C186.329 56.1986 185.321 55.4876 184.467 54.5569C183.64 53.6003 182.994 52.4499 182.528 51.1055C182.063 49.7611 181.83 48.2099 181.83 46.4519C181.83 44.1252 182.205 42.1603 182.955 40.5574C183.731 38.9287 184.842 37.7007 186.29 36.8734C187.738 36.0202 189.457 35.5936 191.448 35.5936C193.309 35.5936 194.951 36.0202 196.373 36.8734C197.795 37.7007 198.906 38.9287 199.708 40.5574C200.535 42.1603 200.949 44.1252 200.949 46.4519ZM187.066 46.4519C187.066 47.9256 187.221 49.1924 187.531 50.2523C187.841 51.2865 188.307 52.075 188.927 52.6179C189.573 53.1608 190.401 53.4323 191.409 53.4323C192.417 53.4323 193.232 53.1608 193.852 52.6179C194.498 52.075 194.964 51.2865 195.248 50.2523C195.558 49.1924 195.713 47.9256 195.713 46.4519C195.713 44.9525 195.558 43.6986 195.248 42.6903C194.938 41.6562 194.46 40.8806 193.813 40.3635C193.193 39.8206 192.378 39.5492 191.37 39.5492C189.845 39.5492 188.746 40.1438 188.074 41.333C187.402 42.5223 187.066 44.2286 187.066 46.4519ZM212.08 35.5936C213.372 35.5936 214.497 35.8522 215.454 36.3692C216.41 36.8863 217.212 37.6619 217.858 38.696H218.013L218.478 35.9814H222.822V57.1551C222.822 59.1458 222.46 60.8133 221.736 62.1577C221.012 63.5279 219.926 64.562 218.478 65.2601C217.056 65.9581 215.247 66.3071 213.049 66.3071C211.576 66.3071 210.231 66.2037 209.016 65.9969C207.827 65.8159 206.689 65.4927 205.604 65.0274V60.9943C206.353 61.3304 207.116 61.6148 207.892 61.8475C208.693 62.106 209.52 62.2999 210.373 62.4292C211.227 62.5584 212.131 62.6231 213.088 62.6231C214.587 62.6231 215.725 62.1706 216.501 61.2658C217.302 60.3609 217.703 59.0682 217.703 57.3878V56.8449C217.703 56.4571 217.716 56.0047 217.742 55.4876C217.793 54.9705 217.832 54.5569 217.858 54.2466H217.703C217.082 55.3325 216.307 56.1339 215.376 56.651C214.445 57.1422 213.321 57.3878 212.002 57.3878C209.65 57.3878 207.788 56.4312 206.418 54.5181C205.074 52.605 204.401 49.9421 204.401 46.5295C204.401 44.2286 204.712 42.2637 205.332 40.635C205.953 39.0062 206.832 37.7653 207.969 36.9121C209.132 36.0331 210.503 35.5936 212.08 35.5936ZM213.631 39.5879C212.752 39.5879 212.015 39.8594 211.42 40.4023C210.852 40.9194 210.412 41.695 210.102 42.7291C209.792 43.7632 209.637 45.0559 209.637 46.6071C209.637 48.8821 209.973 50.6014 210.645 51.7647C211.317 52.9281 212.325 53.5098 213.67 53.5098C214.445 53.5098 215.105 53.4064 215.647 53.1996C216.19 52.9669 216.63 52.605 216.966 52.1138C217.302 51.5967 217.561 50.9504 217.742 50.1748C217.923 49.3733 218.013 48.4168 218.013 47.3051V46.5683C218.013 44.8878 217.858 43.5435 217.548 42.5352C217.263 41.5011 216.798 40.7513 216.152 40.286C215.505 39.8206 214.665 39.5879 213.631 39.5879Z" fill="#5E5E5E"/>
</svg>
